HIERARCHY
ROOT hips
{
	OFFSET -0.003675 0.299928 -0.021708
	CHANNELS 6 Xposition Yposition Zposition Xrotation Yrotation Zrotation
	JOINT LowerBack
	{
		OFFSET 0.000919 0.177588 0.009275
		CHANNELS 3 Xrotation Yrotation Zrotation
		JOINT spine
		{
			OFFSET 0.000919 0.177588 0.009275
			CHANNELS 3 Xrotation Yrotation Zrotation
			JOINT chest
			{
				OFFSET 0.000456 0.100015 0.004638
				CHANNELS 3 Xrotation Yrotation Zrotation
				JOINT neck
				{
					OFFSET 0.000456 0.100015 0.004638
					CHANNELS 3 Xrotation Yrotation Zrotation
					JOINT head
					{
						OFFSET 0.000924 0.155147 0.009274
						CHANNELS 6 Xposition Yposition Zposition Xrotation Yrotation Zrotation
						End Site
						{
							OFFSET 0.000000 0.153400 0.000000
						}
					}
				}
				JOINT shoulder.L
				{
					OFFSET 0.019937 0.078966 0.057518
					CHANNELS 6 Xposition Yposition Zposition Yrotation Xrotation Zrotation
					JOINT upper_arm.L
					{
						OFFSET 0.177024 -0.020465 -0.095062
						CHANNELS 6 Xposition Yposition Zposition Xrotation Yrotation Zrotation
						JOINT forearm.L
						{
							OFFSET 0.247100 -0.135500 -0.061800
							CHANNELS 3 Xrotation Yrotation Zrotation
							JOINT hand.L
							{
								OFFSET 0.217000 -0.143000 0.039300
								CHANNELS 3 Xrotation Yrotation Zrotation
								JOINT palm.01.L
								{
									OFFSET 0.021770 -0.038291 0.012954
									CHANNELS 6 Xposition Yposition Zposition Yrotation Xrotation Zrotation
									JOINT f_index.01.L
									{
										OFFSET 0.053215 -0.044137 0.008236
										CHANNELS 3 Xrotation Yrotation Zrotation
										JOINT f_index.02.L
										{
											OFFSET 0.036108 -0.024723 -0.010656
											CHANNELS 3 Xrotation Yrotation Zrotation
											JOINT f_index.03.L
											{
												OFFSET 0.021342 -0.014948 -0.010846
												CHANNELS 3 Xrotation Yrotation Zrotation
												End Site
												{
													OFFSET 0.015600 -0.009860 -0.013421
												}
											}
										}
									}
									JOINT thumb.01.L
									{
										OFFSET -0.009090 -0.002348 -0.024223
										CHANNELS 6 Xposition Yposition Zposition Xrotation Yrotation Zrotation
										JOINT thumb.02.L
										{
											OFFSET 0.019713 -0.035076 -0.011120
											CHANNELS 3 Xrotation Yrotation Zrotation
											JOINT thumb.03.L
											{
												OFFSET 0.024877 -0.021748 -0.005176
												CHANNELS 3 Xrotation Yrotation Zrotation
												End Site
												{
													OFFSET 0.016125 -0.013029 -0.001569
												}
											}
										}
									}
								}
								JOINT palm.02.L
								{
									OFFSET 0.032823 -0.025104 0.012281
									CHANNELS 6 Xposition Yposition Zposition Yrotation Xrotation Zrotation
									JOINT f_middle.01.L
									{
										OFFSET 0.055723 -0.038469 0.008037
										CHANNELS 3 Xrotation Yrotation Zrotation
										JOINT f_middle.02.L
										{
											OFFSET 0.038167 -0.027473 -0.015582
											CHANNELS 3 Xrotation Yrotation Zrotation
											JOINT f_middle.03.L
											{
												OFFSET 0.021707 -0.016587 -0.017037
												CHANNELS 3 Xrotation Yrotation Zrotation
												End Site
												{
													OFFSET 0.014112 -0.010584 -0.014294
												}
											}
										}
									}
								}
								JOINT palm.03.L
								{
									OFFSET 0.039230 -0.011402 0.008390
									CHANNELS 6 Xposition Yposition Zposition Yrotation Xrotation Zrotation
									JOINT f_ring.01.L
									{
										OFFSET 0.061796 -0.031470 0.007910
										CHANNELS 3 Xrotation Yrotation Zrotation
										JOINT f_ring.02.L
										{
											OFFSET 0.033092 -0.023401 -0.019127
											CHANNELS 3 Xrotation Yrotation Zrotation
											JOINT f_ring.03.L
											{
												OFFSET 0.021392 -0.015362 -0.017824
												CHANNELS 3 Xrotation Yrotation Zrotation
												End Site
												{
													OFFSET 0.008670 -0.007297 -0.014686
												}
											}
										}
									}
								}
								JOINT palm.04.L
								{
									OFFSET 0.043417 0.002450 0.002889
									CHANNELS 6 Xposition Yposition Zposition Yrotation Xrotation Zrotation
									JOINT f_pinky.01.L
									{
										OFFSET 0.069986 -0.026156 0.003627
										CHANNELS 3 Xrotation Yrotation Zrotation
										JOINT f_pinky.02.L
										{
											OFFSET 0.018520 -0.012813 -0.016429
											CHANNELS 3 Xrotation Yrotation Zrotation
											JOINT f_pinky.03.L
											{
												OFFSET 0.013822 -0.009796 -0.014947
												CHANNELS 3 Xrotation Yrotation Zrotation
												End Site
												{
													OFFSET 0.007238 -0.006103 -0.011657
												}
											}
										}
									}
								}
							}
						}
					}
				}
				JOINT shoulder.R
				{
					OFFSET -0.016662 0.078957 0.057696
					CHANNELS 6 Xposition Yposition Zposition Yrotation Xrotation Zrotation
					JOINT upper_arm.R
					{
						OFFSET -0.176972 -0.020537 -0.095144
						CHANNELS 6 Xposition Yposition Zposition Xrotation Yrotation Zrotation
						JOINT forearm.R
						{
							OFFSET -0.247100 -0.135500 -0.061800
							CHANNELS 3 Xrotation Yrotation Zrotation
							JOINT hand.R
							{
								OFFSET -0.217000 -0.143000 0.039300
								CHANNELS 3 Xrotation Yrotation Zrotation
								JOINT palm.01.R
								{
									OFFSET -0.021773 -0.038278 0.012988
									CHANNELS 6 Xposition Yposition Zposition Yrotation Xrotation Zrotation
									JOINT f_index.01.R
									{
										OFFSET -0.053212 -0.044139 0.008249
										CHANNELS 3 Xrotation Yrotation Zrotation
										JOINT f_index.02.R
										{
											OFFSET -0.036049 -0.024835 -0.010634
											CHANNELS 3 Xrotation Yrotation Zrotation
											JOINT f_index.03.R
											{
												OFFSET -0.021371 -0.014881 -0.010866
												CHANNELS 3 Xrotation Yrotation Zrotation
												End Site
												{
													OFFSET -0.015584 -0.009883 -0.013422
												}
											}
										}
									}
									JOINT thumb.01.R
									{
										OFFSET 0.009113 -0.002381 -0.024211
										CHANNELS 6 Xposition Yposition Zposition Xrotation Yrotation Zrotation
										JOINT thumb.02.R
										{
											OFFSET -0.019694 -0.035097 -0.011088
											CHANNELS 3 Xrotation Yrotation Zrotation
											JOINT thumb.03.R
											{
												OFFSET -0.024867 -0.021762 -0.005168
												CHANNELS 3 Xrotation Yrotation Zrotation
												End Site
												{
													OFFSET -0.016120 -0.013036 -0.001565
												}
											}
										}
									}
								}
								JOINT palm.02.R
								{
									OFFSET -0.032828 -0.025095 0.012286
									CHANNELS 6 Xposition Yposition Zposition Yrotation Xrotation Zrotation
									JOINT f_middle.01.R
									{
										OFFSET -0.055721 -0.038472 0.008040
										CHANNELS 3 Xrotation Yrotation Zrotation
										JOINT f_middle.02.R
										{
											OFFSET -0.038101 -0.027593 -0.015557
											CHANNELS 3 Xrotation Yrotation Zrotation
											JOINT f_middle.03.R
											{
												OFFSET -0.021730 -0.016530 -0.017054
												CHANNELS 3 Xrotation Yrotation Zrotation
												End Site
												{
													OFFSET -0.014096 -0.010608 -0.014293
												}
											}
										}
									}
								}
								JOINT palm.03.R
								{
									OFFSET -0.039192 -0.011488 0.008390
									CHANNELS 6 Xposition Yposition Zposition Yrotation Xrotation Zrotation
									JOINT f_ring.01.R
									{
										OFFSET -0.061839 -0.031387 0.007876
										CHANNELS 3 Xrotation Yrotation Zrotation
										JOINT f_ring.02.R
										{
											OFFSET -0.033068 -0.023437 -0.019125
											CHANNELS 3 Xrotation Yrotation Zrotation
											JOINT f_ring.03.R
											{
												OFFSET -0.021371 -0.015393 -0.017822
												CHANNELS 3 Xrotation Yrotation Zrotation
												End Site
												{
													OFFSET -0.008654 -0.007321 -0.014684
												}
											}
										}
									}
								}
								JOINT palm.04.R
								{
									OFFSET -0.043421 0.002443 0.002845
									CHANNELS 6 Xposition Yposition Zposition Yrotation Xrotation Zrotation
									JOINT f_pinky.01.R
									{
										OFFSET -0.069983 -0.026169 0.003599
										CHANNELS 3 Xrotation Yrotation Zrotation
										JOINT f_pinky.02.R
										{
											OFFSET -0.018501 -0.012842 -0.016428
											CHANNELS 3 Xrotation Yrotation Zrotation
											JOINT f_pinky.03.R
											{
												OFFSET -0.013806 -0.009821 -0.014946
												CHANNELS 3 Xrotation Yrotation Zrotation
												End Site
												{
													OFFSET -0.007226 -0.006121 -0.011655
												}
											}
										}
									}
								}
							}
						}
					}
				}
			}
		}
	}
	JOINT pelvis.L
	{
		OFFSET 0.000000 0.000000 0.000000
		CHANNELS 6 Xposition Yposition Zposition Xrotation Yrotation Zrotation
		JOINT thigh.L
		{
			OFFSET 0.101675 0.001054 -0.000000
			CHANNELS 3 Xrotation Yrotation Zrotation
			JOINT shin.L
			{
				OFFSET 0.000000 -0.534800 0.041000
				CHANNELS 3 Xrotation Yrotation Zrotation
				JOINT foot.L
				{
					OFFSET 0.000000 -0.452000 -0.044800
					CHANNELS 3 Xrotation Yrotation Zrotation
					JOINT toe.L
					{
						OFFSET -0.000000 -0.068500 0.109600
						CHANNELS 3 Xrotation Yrotation Zrotation
						End Site
						{
							OFFSET -0.000000 0.000000 0.067200
						}
					}
				}
				JOINT heel.L
				{
					OFFSET 0.000000 -0.452000 -0.044800
					CHANNELS 3 Xrotation Yrotation Zrotation
					JOINT heel.02.L
					{
						OFFSET -0.038000 -0.085200 0.016200
						CHANNELS 6 Xposition Yposition Zposition Xrotation Yrotation Zrotation
						End Site
						{
							OFFSET 0.080000 -0.000000 0.000000
						}
					}
				}
			}
		}
	}
	JOINT pelvis.R
	{
		OFFSET 0.000000 0.000000 0.000000
		CHANNELS 6 Xposition Yposition Zposition Xrotation Yrotation Zrotation
		JOINT thigh.R
		{
			OFFSET -0.094325 0.001054 0.000000
			CHANNELS 3 Xrotation Yrotation Zrotation
			JOINT shin.R
			{
				OFFSET 0.000000 -0.534800 0.041000
				CHANNELS 3 Xrotation Yrotation Zrotation
				JOINT foot.R
				{
					OFFSET 0.000000 -0.452000 -0.044800
					CHANNELS 3 Xrotation Yrotation Zrotation
					JOINT toe.R
					{
						OFFSET -0.000000 -0.068500 0.109600
						CHANNELS 3 Xrotation Yrotation Zrotation
						End Site
						{
							OFFSET -0.000000 0.000000 0.067200
						}
					}
				}
				JOINT heel.R
				{
					OFFSET 0.000000 -0.452000 -0.044800
					CHANNELS 3 Xrotation Yrotation Zrotation
					JOINT heel.02.R
					{
						OFFSET 0.038000 -0.085200 0.016200
						CHANNELS 6 Xposition Yposition Zposition Xrotation Yrotation Zrotation
						End Site
						{
							OFFSET -0.080000 0.000000 -0.000000
						}
					}
				}
			}
		}
	}
}
MOTION
Frames: 4
Frame Time: 0.041667
-0.015505 0.279036 -0.022087 -169.914452 121.022141 178.465248 -0.000001 0.000004 0.000000 0.000001 0.000003 -0.000000 0.000001 0.000002 0.000000 0.000001 0.000003 -0.000000 0.000924 0.155148 0.009274 23.936046 -0.023945 -6.579927 0.019937 0.078966 0.057518 16.022761 5.759094 28.164423 0.177024 -0.020465 -0.095062 -18.323205 8.232832 -49.739063 -26.277206 1.846681 259.957328 -0.000003 -0.000001 -0.000006 0.021770 -0.038291 0.012954 0.000001 0.000000 -0.000004 0.000000 -0.000001 -0.000002 0.000000 0.000003 0.000007 -0.000002 0.000007 -0.000003 -0.009090 -0.002348 -0.024224 -0.000001 -0.000004 0.000000 -0.000001 -0.000000 0.000001 -0.000001 0.000001 -0.000002 0.032823 -0.025104 0.012281 0.000000 -0.000001 0.000002 0.000003 -0.000002 -0.000009 -0.000005 -0.000002 -0.000000 -0.000001 0.000000 0.000004 0.039230 -0.011402 0.008390 0.000004 0.000000 0.000003 -0.000001 0.000002 -0.000002 -0.000002 0.000002 0.000003 0.000001 -0.000003 0.000003 0.043417 0.002450 0.002889 0.000000 0.000001 -0.000000 0.000002 -0.000004 0.000001 -0.000000 0.000002 -0.000001 -0.000002 0.000003 -0.000001 -0.016662 0.078957 0.057696 20.752550 6.021808 -40.835283 -0.176972 -0.020537 -0.095144 -74.197793 -7.402189 46.089744 -63.307323 1.077646 58.860248 -0.000001 -0.000002 0.000004 -0.021773 -0.038278 0.012988 -0.000003 -0.000001 -0.000002 -0.000005 0.000004 -0.000001 -0.000001 0.000001 -0.000004 -0.000002 0.000000 0.000003 0.009114 -0.002381 -0.024211 -0.000002 0.000000 -0.000001 0.000001 -0.000002 -0.000001 0.000001 0.000000 0.000001 -0.032828 -0.025095 0.012286 -0.000004 -0.000001 0.000001 -0.000002 0.000003 -0.000001 0.000003 -0.000003 -0.000007 -0.000002 0.000003 -0.000006 -0.039192 -0.011488 0.008390 -0.000002 0.000001 0.000003 0.000005 0.000000 -0.000005 -0.000000 0.000001 0.000002 -0.000001 0.000003 0.000005 -0.043421 0.002443 0.002845 -0.000005 0.000002 0.000000 -0.000005 0.000004 -0.000001 0.000000 -0.000003 0.000002 -0.000001 0.000003 -0.000003 -0.000000 0.000000 -0.000000 -1.573972 -0.579206 6.210817 -69.110176 -0.537178 -3.724815 87.675300 -1.083258 11.000180 -0.000002 0.000002 -0.000001 -0.000001 0.000001 -0.000001 0.000002 0.000002 -0.000000 -0.038000 -0.085200 0.016200 0.000003 0.000000 0.000001 -0.000000 0.000000 -0.000000 -1.557436 -0.577226 7.445182 -5.893062 -0.173030 -3.034285 29.767126 -0.112640 1.137293 0.000002 -0.000002 0.000002 0.000005 0.000000 -0.000003 0.000005 -0.000002 0.000003 0.038000 -0.085200 0.016200 -0.000002 0.000000 0.000001 
-0.011596 0.284286 -0.018753 -169.499791 123.522182 177.227003 -0.000001 0.000005 -0.000000 0.000000 0.000000 -0.000001 -0.000001 0.000004 -0.000002 -0.000001 0.000003 -0.000001 0.000924 0.155148 0.009274 24.207020 -0.025248 -10.545872 0.019937 0.078966 0.057518 18.652700 6.797499 27.785425 0.177024 -0.020465 -0.095062 -22.016328 5.556262 -44.189616 -35.173022 25.605845 245.229527 -0.000004 0.000003 -0.000001 0.021770 -0.038291 0.012954 0.000001 0.000000 0.000001 0.000001 -0.000002 -0.000002 0.000001 0.000001 0.000005 0.000004 0.000001 -0.000000 -0.009090 -0.002348 -0.024223 -0.000001 -0.000003 -0.000003 0.000001 -0.000000 0.000001 -0.000000 0.000001 -0.000002 0.032823 -0.025104 0.012281 0.000000 0.000000 0.000004 0.000001 -0.000001 -0.000003 -0.000003 -0.000002 0.000001 -0.000002 0.000001 0.000001 0.039230 -0.011402 0.008390 0.000001 0.000004 0.000003 0.000001 -0.000000 -0.000004 0.000000 0.000005 0.000001 -0.000002 -0.000000 0.000004 0.043417 0.002449 0.002889 -0.000002 0.000004 -0.000002 -0.000004 -0.000003 -0.000000 -0.000000 0.000003 0.000003 0.000006 -0.000001 -0.000001 -0.016662 0.078956 0.057696 19.540946 7.069191 -42.439322 -0.176972 -0.020537 -0.095144 -61.761016 6.586749 39.579450 -82.272852 -41.583582 68.878619 -0.000000 -0.000002 -0.000005 -0.021773 -0.038278 0.012988 0.000002 -0.000004 -0.000003 -0.000001 0.000001 -0.000005 0.000001 -0.000004 -0.000003 -0.000000 0.000002 0.000003 0.009114 -0.002381 -0.024211 0.000002 -0.000003 -0.000001 -0.000001 -0.000001 0.000000 0.000001 -0.000001 -0.000004 -0.032828 -0.025095 0.012286 0.000002 -0.000000 -0.000004 0.000002 -0.000000 -0.000003 -0.000002 -0.000000 -0.000001 -0.000002 0.000006 -0.000003 -0.039192 -0.011488 0.008390 0.000003 -0.000001 -0.000002 -0.000005 -0.000001 -0.000002 0.000003 -0.000003 -0.000002 -0.000001 -0.000002 -0.000003 -0.043421 0.002443 0.002845 0.000002 -0.000001 0.000000 -0.000007 0.000001 -0.000004 -0.000003 -0.000003 0.000003 -0.000005 0.000002 0.000002 -0.000000 0.000000 -0.000000 -1.459135 -0.592219 6.550307 -53.146170 -0.510411 -3.906376 71.476987 -0.808307 8.185732 -0.000002 0.000001 -0.000003 0.000001 0.000004 -0.000001 0.000002 -0.000003 0.000000 -0.038000 -0.085200 0.016200 0.000000 0.000000 -0.000001 -0.000000 0.000000 -0.000000 -1.444827 -0.590421 7.784648 -0.164585 0.010375 -0.212609 26.630569 -0.048629 0.491272 0.000003 -0.000000 -0.000000 0.000001 -0.000002 0.000001 0.000003 -0.000001 -0.000003 0.038000 -0.085200 0.016200 0.000001 -0.000004 0.000004 
-0.009282 0.278253 -0.017622 -165.395257 128.274832 173.320749 0.000000 -0.000001 -0.000000 -0.000001 -0.000003 0.000001 0.000000 -0.000001 0.000001 0.000001 -0.000004 -0.000000 0.000924 0.155148 0.009274 22.615368 -0.024281 -7.733292 0.019937 0.078966 0.057518 4.437271 4.900343 32.109986 0.177025 -0.020465 -0.095062 -62.454239 21.572705 -58.955153 -55.527310 49.045048 263.414004 -0.000002 0.000003 0.000006 0.021770 -0.038291 0.012954 0.000003 -0.000002 -0.000007 0.000000 -0.000000 0.000005 0.000001 -0.000002 0.000012 -0.000006 0.000005 -0.000005 -0.009090 -0.002348 -0.024224 -0.000001 -0.000001 0.000001 -0.000004 -0.000001 -0.000004 -0.000003 -0.000001 -0.000002 0.032823 -0.025104 0.012281 0.000001 -0.000002 0.000002 0.000002 0.000003 0.000000 -0.000006 0.000003 0.000005 -0.000001 0.000001 0.000001 0.039230 -0.011402 0.008390 0.000001 -0.000001 0.000001 0.000004 -0.000004 -0.000002 -0.000002 0.000006 -0.000002 -0.000001 -0.000002 0.000003 0.043417 0.002450 0.002889 0.000000 -0.000002 -0.000005 -0.000003 -0.000002 -0.000004 -0.000002 0.000002 0.000000 0.000000 -0.000002 -0.000002 -0.016662 0.078957 0.057696 13.747961 6.034782 -40.788657 -0.176972 -0.020537 -0.095144 -73.973599 -16.589686 50.976034 -76.062209 4.260826 53.755317 0.000001 -0.000001 0.000004 -0.021773 -0.038278 0.012988 0.000002 -0.000003 0.000002 -0.000000 -0.000000 0.000002 -0.000002 -0.000000 -0.000003 -0.000001 0.000000 0.000003 0.009114 -0.002381 -0.024211 -0.000000 -0.000007 0.000004 0.000000 -0.000004 0.000000 -0.000000 0.000000 -0.000004 -0.032828 -0.025095 0.012286 0.000001 -0.000004 0.000001 0.000000 0.000002 -0.000001 -0.000000 -0.000005 0.000001 -0.000003 0.000003 -0.000006 -0.039192 -0.011488 0.008390 0.000002 -0.000001 0.000003 -0.000000 0.000003 -0.000003 0.000004 0.000000 -0.000000 -0.000001 0.000004 -0.000003 -0.043421 0.002443 0.002844 0.000002 -0.000001 0.000002 -0.000005 0.000003 -0.000002 -0.000000 0.000003 0.000002 -0.000000 0.000001 -0.000000 0.000000 0.000000 -0.000000 -1.553422 -0.404088 4.059887 -44.910116 -0.283076 -1.304539 65.259582 -1.043719 10.593890 -0.000002 0.000001 -0.000000 0.000001 -0.000004 0.000001 0.000000 -0.000000 0.000001 -0.038000 -0.085200 0.016200 -0.000000 0.000003 -0.000004 0.000000 0.000000 -0.000000 -1.532108 -0.402355 5.294219 -4.879289 0.293990 3.177578 27.392694 0.114777 -1.157466 0.000003 0.000005 -0.000001 -0.000002 -0.000001 -0.000003 0.000007 0.000003 -0.000001 0.038000 -0.085200 0.016200 -0.000003 -0.000002 -0.000001 
-0.008598 0.279352 -0.018737 -182.250798 133.894766 182.747572 -0.000000 0.000001 0.000000 -0.000000 0.000002 0.000000 -0.000000 -0.000001 -0.000000 0.000000 -0.000003 -0.000000 0.000924 0.155148 0.009274 22.398250 -0.026537 -11.589440 0.019937 0.078966 0.057518 7.863437 5.012821 29.136651 0.177024 -0.020465 -0.095062 -57.565224 1.699977 -44.521533 -45.818425 69.595687 248.134981 -0.000001 -0.000001 -0.000000 0.021770 -0.038291 0.012954 0.000000 0.000001 -0.000002 0.000002 -0.000001 -0.000001 0.000001 -0.000004 0.000006 0.000003 0.000002 0.000002 -0.009090 -0.002348 -0.024224 0.000001 -0.000002 0.000002 -0.000002 0.000000 0.000001 0.000000 -0.000001 0.000004 0.032823 -0.025104 0.012281 0.000001 0.000001 0.000005 -0.000002 -0.000001 -0.000003 -0.000001 0.000000 0.000001 -0.000000 -0.000001 -0.000005 0.039230 -0.011402 0.008390 0.000001 -0.000001 0.000001 0.000002 0.000002 -0.000000 0.000003 -0.000001 0.000001 0.000002 -0.000004 0.000004 0.043417 0.002450 0.002889 0.000001 0.000003 -0.000004 -0.000004 -0.000001 -0.000000 -0.000002 0.000006 -0.000003 0.000003 -0.000003 -0.000004 -0.016662 0.078957 0.057696 13.994972 7.650332 -45.484228 -0.176972 -0.020537 -0.095144 -58.895710 19.614994 32.724543 -13.417463 58.043576 -26.368562 -0.000000 0.000001 0.000000 -0.021773 -0.038278 0.012988 0.000000 -0.000000 0.000002 -0.000001 -0.000001 -0.000001 -0.000000 -0.000001 -0.000011 -0.000000 0.000001 -0.000000 0.009113 -0.002381 -0.024211 -0.000001 -0.000001 0.000001 -0.000001 -0.000002 0.000000 0.000001 -0.000000 -0.000003 -0.032828 -0.025095 0.012286 0.000000 0.000001 -0.000003 0.000001 0.000000 -0.000004 -0.000001 -0.000001 -0.000001 -0.000001 0.000000 -0.000008 -0.039192 -0.011488 0.008390 -0.000001 0.000001 0.000003 0.000000 0.000003 0.000000 0.000001 -0.000002 -0.000000 -0.000002 -0.000001 0.000001 -0.043421 0.002443 0.002845 -0.000000 0.000000 -0.000001 -0.000003 0.000000 -0.000002 0.000000 -0.000003 0.000000 -0.000000 0.000003 0.000001 0.000000 0.000000 -0.000000 -1.463301 -0.659223 7.389077 -33.862565 -0.201434 -0.647546 60.250369 0.224126 -2.259766 0.000000 0.000000 0.000000 0.000000 -0.000003 0.000004 0.000002 -0.000003 0.000002 -0.038000 -0.085200 0.016200 -0.000002 0.000002 -0.000002 0.000000 0.000000 0.000000 -1.450810 -0.657477 8.623415 12.866360 0.392675 5.683078 15.944911 -0.005912 0.060153 -0.000002 -0.000002 -0.000000 0.000003 -0.000003 -0.000000 0.000003 0.000001 0.000002 0.038000 -0.085200 0.016200 0.000001 -0.000003 -0.000001 
